<svg width="80" height="80" viewBox="0 0 80 80" fill="none" xmlns="http://www.w3.org/2000/svg">
<g id="Logo">
<path id="Vector" d="M28.9711 77.3689C1.76445 73.3622 2.22223 46.0422 2.22223 37.7778H77.7778C77.7778 42.0311 77.9711 72.8222 48.6111 77.5956C44.0733 78.3334 34.26 78.1489 28.9711 77.3689Z" fill="#574747"/>
<path id="Vector_2" d="M74.1955 29.4378C79.6778 17.0511 55.6822 17.7622 49.6733 19.7C46.58 19.34 43.3489 19.1356 40 19.1356C19.1356 19.1356 2.22222 26.3089 2.22222 37.9C2.22222 40.1422 2.86889 42.2978 4.04 44.3244C-5.57556 57.0178 13.4756 59.4044 24.4489 57.0133C29.1956 58.2067 34.4489 58.8889 40 58.8889C60.8644 58.8889 77.7778 49.4911 77.7778 37.9022C77.7778 34.7244 76.4689 31.8933 74.1955 29.4378Z" fill="#786E6E"/>
<path id="Vector_3" d="M40 55.5556C58.4095 55.5556 73.3333 48.5911 73.3333 40C73.3333 31.4089 58.4095 24.4444 40 24.4444C21.5905 24.4444 6.66666 31.4089 6.66666 40C6.66666 48.5911 21.5905 55.5556 40 55.5556Z" fill="#FFCC4D"/>
<path id="Vector_4" d="M8.8889 35.5556C7.68446 30.7356 13.3333 22.2222 24.4444 24.4444C26.6667 22.2222 30.7511 20 37.7778 20C42.2222 20 50.2489 23.9444 46.6667 31.1111C44.4444 35.5556 35.5556 42.2222 24.4444 37.7778C22.2222 40 11.1111 44.4444 8.8889 35.5556Z" fill="#77B255"/>
<path id="Vector_5" d="M26.6667 37.7778C26.1133 37.8578 25.62 37.94 25.16 38.0245C35.9333 41.9045 44.4933 35.4578 46.6667 31.1111C49.0622 26.32 46.2645 22.9778 42.82 21.2822C43.6956 25.3311 40.3133 35.8289 26.6667 37.7778Z" fill="#5C913B"/>
<path id="Vector_6" d="M11.1111 35.5556C12.2778 32.6378 22.2222 28.8889 33.3333 42.2222C35.5555 44.4445 43.5244 45.7467 46.6667 48.8889C48.8889 51.1111 46.6667 53.3333 37.7778 53.3333C28.8889 53.3333 6.66666 46.6667 11.1111 35.5556Z" fill="#D99E82"/>
<path id="Vector_7" d="M13.4244 44.4845C19.0867 50.1356 31.6244 53.3333 37.7778 53.3333C46.6667 53.3333 48.8889 51.1111 46.6667 48.8889C45.9422 48.1645 44.9555 47.54 43.8489 46.9778C36.7289 50.8289 17.8933 46.6578 13.4244 44.4845Z" fill="#B27962"/>
<path id="Vector_8" d="M60 42.2244C59.5356 42.2244 59.06 42.1489 58.5933 41.9933L51.9267 39.7711C49.5978 38.9933 48.34 36.4778 49.1156 34.1489C49.8911 31.8222 52.4022 30.5622 54.7378 31.3378L61.4045 33.56C63.7333 34.3378 64.9911 36.8533 64.2156 39.1822C63.5956 41.0467 61.8622 42.2244 60 42.2244ZM57.7778 48.8889H53.3333C52.1045 48.8889 51.1111 47.8956 51.1111 46.6667C51.1111 45.4378 52.1045 44.4444 53.3333 44.4444H57.7778C59.0067 44.4444 60 45.4378 60 46.6667C60 47.8956 59.0067 48.8889 57.7778 48.8889Z" fill="#FFE8B6"/>
</g>
</svg>
